<svg xmlns="http://www.w3.org/2000/svg" xmlns:xlink="http://www.w3.org/1999/xlink" width="1080" zoomAndPan="magnify" viewBox="0 0 810 809.999993" height="1080" preserveAspectRatio="xMidYMid meet" version="1.0"><defs><g/></defs><rect x="-81" width="972" fill="#ffffff" y="-80.999999" height="971.999992" fill-opacity="1"/><rect x="-81" width="972" fill="#5271ff" y="-80.999999" height="971.999992" fill-opacity="1"/><g fill="#ffffff" fill-opacity="1"><g transform="translate(205.584953, 555.500018)"><g><path d="M 133.203125 -273.4375 C 138.410156 -273.4375 143.679688 -273.175781 149.015625 -272.65625 C 154.359375 -272.132812 159.175781 -270.894531 163.46875 -268.9375 C 167.769531 -266.988281 171.285156 -264.09375 174.015625 -260.25 C 176.753906 -256.414062 178.125 -251.175781 178.125 -244.53125 C 178.125 -237.894531 176.753906 -232.65625 174.015625 -228.8125 C 171.285156 -224.96875 167.769531 -222.066406 163.46875 -220.109375 C 159.175781 -218.160156 154.359375 -216.925781 149.015625 -216.40625 C 143.679688 -215.882812 138.410156 -215.625 133.203125 -215.625 L 86.71875 -215.625 L 86.71875 -164.84375 L 111.328125 -164.84375 C 116.410156 -164.84375 121.617188 -164.644531 126.953125 -164.25 C 132.296875 -163.863281 137.113281 -162.757812 141.40625 -160.9375 C 145.707031 -159.113281 149.253906 -156.25 152.046875 -152.34375 C 154.847656 -148.4375 156.25 -142.96875 156.25 -135.9375 C 156.25 -128.90625 154.878906 -123.4375 152.140625 -119.53125 C 149.410156 -115.625 145.894531 -112.757812 141.59375 -110.9375 C 137.300781 -109.113281 132.484375 -108.003906 127.140625 -107.609375 C 121.804688 -107.222656 116.535156 -107.03125 111.328125 -107.03125 L 86.71875 -107.03125 L 86.71875 -44.921875 C 86.71875 -39.191406 86.554688 -33.65625 86.234375 -28.3125 C 85.910156 -22.976562 84.800781 -18.195312 82.90625 -13.96875 C 81.019531 -9.738281 78.054688 -6.351562 74.015625 -3.8125 C 69.984375 -1.269531 64.320312 0 57.03125 0 C 49.613281 0 43.882812 -1.269531 39.84375 -3.8125 C 35.8125 -6.351562 32.882812 -9.738281 31.0625 -13.96875 C 29.238281 -18.195312 28.160156 -22.976562 27.828125 -28.3125 C 27.503906 -33.65625 27.34375 -39.191406 27.34375 -44.921875 L 27.34375 -228.515625 C 27.34375 -234.117188 27.503906 -239.585938 27.828125 -244.921875 C 28.160156 -250.265625 29.238281 -255.050781 31.0625 -259.28125 C 32.882812 -263.507812 35.8125 -266.925781 39.84375 -269.53125 C 43.882812 -272.132812 49.613281 -273.4375 57.03125 -273.4375 Z M 133.203125 -273.4375 "/></g></g><g transform="translate(388.78693, 555.500018)"><g><path d="M 109.765625 -273.4375 C 121.359375 -273.4375 132.265625 -271.9375 142.484375 -268.9375 C 152.703125 -265.945312 161.617188 -261.457031 169.234375 -255.46875 C 176.859375 -249.476562 182.847656 -242.023438 187.203125 -233.109375 C 191.566406 -224.191406 193.75 -213.804688 193.75 -201.953125 C 193.75 -195.835938 192.9375 -190.269531 191.3125 -185.25 C 189.6875 -180.238281 187.601562 -175.710938 185.0625 -171.671875 C 182.519531 -167.640625 179.71875 -164.125 176.65625 -161.125 C 173.601562 -158.132812 170.644531 -155.566406 167.78125 -153.421875 C 164.914062 -151.273438 162.375 -149.582031 160.15625 -148.34375 C 157.945312 -147.101562 156.382812 -146.351562 155.46875 -146.09375 C 163.28125 -143.882812 169.851562 -141.050781 175.1875 -137.59375 C 180.53125 -134.144531 184.992188 -130.367188 188.578125 -126.265625 C 192.160156 -122.171875 194.957031 -117.941406 196.96875 -113.578125 C 198.988281 -109.210938 200.488281 -104.976562 201.46875 -100.875 C 202.445312 -96.78125 203.03125 -93.003906 203.21875 -89.546875 C 203.414062 -86.097656 203.515625 -83.332031 203.515625 -81.25 C 203.515625 -71.09375 202.273438 -62.140625 199.796875 -54.390625 C 197.328125 -46.648438 194.070312 -39.945312 190.03125 -34.28125 C 186 -28.613281 181.378906 -23.796875 176.171875 -19.828125 C 170.960938 -15.859375 165.691406 -12.632812 160.359375 -10.15625 C 147.597656 -4.164062 133.207031 -0.78125 117.1875 0 L 53.125 0 C 45.707031 0 39.976562 -1.269531 35.9375 -3.8125 C 31.90625 -6.351562 28.976562 -9.738281 27.15625 -13.96875 C 25.332031 -18.195312 24.253906 -22.976562 23.921875 -28.3125 C 23.597656 -33.65625 23.4375 -39.191406 23.4375 -44.921875 L 23.4375 -228.90625 C 23.4375 -234.507812 23.597656 -239.976562 23.921875 -245.3125 C 24.253906 -250.65625 25.332031 -255.410156 27.15625 -259.578125 C 28.976562 -263.742188 31.90625 -267.09375 35.9375 -269.625 C 39.976562 -272.164062 45.707031 -273.4375 53.125 -273.4375 Z M 82.8125 -119.53125 L 82.8125 -46.09375 L 111.328125 -46.09375 C 117.453125 -46.351562 122.921875 -47.785156 127.734375 -50.390625 C 129.816406 -51.429688 131.832031 -52.796875 133.78125 -54.484375 C 135.738281 -56.179688 137.5 -58.300781 139.0625 -60.84375 C 140.625 -63.382812 141.859375 -66.3125 142.765625 -69.625 C 143.679688 -72.945312 144.140625 -76.820312 144.140625 -81.25 C 144.140625 -86.070312 143.648438 -90.269531 142.671875 -93.84375 C 141.703125 -97.425781 140.398438 -100.550781 138.765625 -103.21875 C 137.140625 -105.894531 135.285156 -108.175781 133.203125 -110.0625 C 131.117188 -111.945312 129.035156 -113.476562 126.953125 -114.65625 C 121.878906 -117.382812 116.148438 -119.007812 109.765625 -119.53125 Z M 82.8125 -227.34375 L 82.8125 -160.9375 L 107.8125 -160.9375 C 113.414062 -161.195312 118.429688 -162.5 122.859375 -164.84375 C 124.679688 -165.757812 126.503906 -167 128.328125 -168.5625 C 130.148438 -170.125 131.773438 -171.976562 133.203125 -174.125 C 134.640625 -176.269531 135.78125 -178.835938 136.625 -181.828125 C 137.46875 -184.828125 137.890625 -188.28125 137.890625 -192.1875 C 137.890625 -196.613281 137.429688 -200.488281 136.515625 -203.8125 C 135.609375 -207.132812 134.40625 -210 132.90625 -212.40625 C 131.414062 -214.8125 129.722656 -216.859375 127.828125 -218.546875 C 125.941406 -220.242188 124.023438 -221.679688 122.078125 -222.859375 C 117.390625 -225.328125 112.113281 -226.820312 106.25 -227.34375 Z M 82.8125 -227.34375 "/></g></g></g></svg>